# xmcd
#
# Track frame offsets:
#	150
#	14140
#	35670
#	49215
#	62415
#	78857
#	95825
#	113115
#	129020
#	141700
#	163465
#
# Disc length: 2364 seconds
#
# Revision: 0
# Processed by: cddbd v1.4PL0 Copyright (c) Steve Scherf et al.
# Submitted via: dBpowerAMP V4.0
#
DISCID=9e093a0b
DTITLE=Lance and Donna - Travelin'Blues
DYEAR=1998
DGENRE=Blues
TTITLE0=I Ain't No Iceman
TTITLE1=Come On In My Kitchen
TTITLE2=Can' t Get That Stuff No More
TTITLE3=Death Don't Have No Mercy
TTITLE4=Crossroads
TTITLE5=Love In Vain
TTITLE6=Baby, Please Don' t Go
TTITLE7=Sittin' On Top Of The World
TTITLE8=Can' t Be Satisfied
TTITLE9=One Way Out
TTITLE10=Dust My Broom
EXTD=
EXTT0=
EXTT1=
EXTT2=
EXTT3=
EXTT4=
EXTT5=
EXTT6=
EXTT7=
EXTT8=
EXTT9=
EXTT10=
PLAYORDER=
